{
  "accessors": [
    {
      "bufferView": 2,
      "componentType": 5126,
      "count": 12048,
      "max": [
        11.680017471313477,
        84.82881164550781,
        12.010000228881836
      ],
      "min": [
        -12.002220153808594,
        2.9815902709960938,
        -12.010002136230469
      ],
      "type": "VEC3"
    },
    {
      "bufferView": 2,
      "byteOffset": 144576,
      "componentType": 5126,
      "count": 12048,
      "max": [
        0.9130331873893738,
        0.9424485564231873,
        0.9832622408866882
      ],
      "min": [
        -0.9839035868644714,
        -0.9929854869842529,
        -0.9831762909889221
      ],
      "type": "VEC3"
    },
    {
      "bufferView": 1,
      "componentType": 5126,
      "count": 12048,
      "max": [
        5.5869140625,
        3.346527099609375
      ],
      "min": [
        -8.62109375,
        -0.683837890625
      ],
      "type": "VEC2"
    },
    {
      "bufferView": 0,
      "componentType": 5125,
      "count": 18072,
      "type": "SCALAR"
    },
    {
      "bufferView": 2,
      "byteOffset": 289152,
      "componentType": 5126,
      "count": 276,
      "max": [
        -11.694531440734863,
        85.51358032226563,
        12.119030952453613
      ],
      "min": [
        -13.392687797546387,
        2.6099395751953125,
        -12.125422477722168
      ],
      "type": "VEC3"
    },
    {
      "bufferView": 2,
      "byteOffset": 292464,
      "componentType": 5126,
      "count": 276,
      "max": [
        1.0,
        1.0,
        1.0
      ],
      "min": [
        -1.0,
        -1.0,
        -1.0
      ],
      "type": "VEC3"
    },
    {
      "bufferView": 1,
      "byteOffset": 96384,
      "componentType": 5126,
      "count": 276,
      "max": [
        0.9766168594360352,
        1.2623672485351563
      ],
      "min": [
        -0.4577755928039551,
        0.0
      ],
      "type": "VEC2"
    },
    {
      "bufferView": 0,
      "byteOffset": 72288,
      "componentType": 5125,
      "count": 414,
      "type": "SCALAR"
    },
    {
      "bufferView": 2,
      "byteOffset": 295776,
      "componentType": 5126,
      "count": 420,
      "max": [
        11.873357772827148,
        85.51358032226563,
        12.119030952453613
      ],
      "min": [
        -13.392687797546387,
        2.6135787963867188,
        -12.125422477722168
      ],
      "type": "VEC3"
    },
    {
      "bufferView": 2,
      "byteOffset": 300816,
      "componentType": 5126,
      "count": 420,
      "max": [
        1.0,
        1.0,
        1.0
      ],
      "min": [
        -1.0,
        -1.0,
        -1.0
      ],
      "type": "VEC3"
    },
    {
      "bufferView": 1,
      "byteOffset": 98592,
      "componentType": 5126,
      "count": 420,
      "max": [
        1.1392841339111328,
        1.3317766189575195
      ],
      "min": [
        -0.4588126540184021,
        -7.62939453125e-06
      ],
      "type": "VEC2"
    },
    {
      "bufferView": 0,
      "byteOffset": 73944,
      "componentType": 5125,
      "count": 630,
      "type": "SCALAR"
    }
  ],
  "asset": {
    "extras": {
      "author": "darineroar (https://sketchfab.com/darineroar)",
      "license": "CC-BY-4.0 (http://creativecommons.org/licenses/by/4.0/)",
      "source": "https://sketchfab.com/3d-models/porteria-futbol-soccer-goal-39ba53e66e9244b88b4e58dcc81fdf9f",
      "title": "porteria futbol soccer goal"
    },
    "generator": "Sketchfab-15.18.0",
    "version": "2.0"
  },
  "bufferViews": [
    {
      "buffer": 0,
      "byteLength": 76464,
      "name": "floatBufferViews",
      "target": 34963
    },
    {
      "buffer": 0,
      "byteLength": 101952,
      "byteOffset": 76464,
      "byteStride": 8,
      "name": "floatBufferViews",
      "target": 34962
    },
    {
      "buffer": 0,
      "byteLength": 305856,
      "byteOffset": 178416,
      "byteStride": 12,
      "name": "floatBufferViews",
      "target": 34962
    }
  ],
  "buffers": [
    {
      "byteLength": 484272,
      "uri": "scene.bin"
    }
  ],
  "materials": [
    {
      "doubleSided": true,
      "name": "REDES",
      "pbrMetallicRoughness": {
        "baseColorFactor": [
          0.486897,
          0.486897,
          0.486897,
          1.0
        ],
        "metallicFactor": 0.0,
        "roughnessFactor": 0.5
      }
    },
    {
      "doubleSided": true,
      "name": "ROJOS",
      "pbrMetallicRoughness": {
        "baseColorFactor": [
          0.486897,
          0.00146097,
          0.000744838,
          1.0
        ],
        "metallicFactor": 0.0,
        "roughnessFactor": 0.5
      }
    },
    {
      "doubleSided": true,
      "name": "BLANCOS",
      "pbrMetallicRoughness": {
        "baseColorFactor": [
          0.8,
          0.8,
          0.8,
          1.0
        ],
        "metallicFactor": 0.0,
        "roughnessFactor": 0.5
      }
    }
  ],
  "meshes": [
    {
      "name": "Object_0",
      "primitives": [
        {
          "attributes": {
            "NORMAL": 1,
            "POSITION": 0,
            "TEXCOORD_0": 2
          },
          "indices": 3,
          "material": 0,
          "mode": 4
        }
      ]
    },
    {
      "name": "Object_1",
      "primitives": [
        {
          "attributes": {
            "NORMAL": 5,
            "POSITION": 4,
            "TEXCOORD_0": 6
          },
          "indices": 7,
          "material": 1,
          "mode": 4
        }
      ]
    },
    {
      "name": "Object_2",
      "primitives": [
        {
          "attributes": {
            "NORMAL": 9,
            "POSITION": 8,
            "TEXCOORD_0": 10
          },
          "indices": 11,
          "material": 2,
          "mode": 4
        }
      ]
    }
  ],
  "nodes": [
    {
      "children": [
        1
      ],
      "matrix": [
        1.0,
        0.0,
        0.0,
        0.0,
        0.0,
        2.220446049250313e-16,
        -1.0,
        0.0,
        0.0,
        1.0,
        2.220446049250313e-16,
        0.0,
        0.0,
        0.0,
        0.0,
        1.0
      ],
      "name": "Sketchfab_model"
    },
    {
      "children": [
        2
      ],
      "name": "root"
    },
    {
      "children": [
        3
      ],
      "matrix": [
        1.0,
        0.0,
        0.0,
        0.0,
        0.0,
        2.220446049250313e-16,
        1.0,
        0.0,
        0.0,
        -1.0,
        2.220446049250313e-16,
        0.0,
        0.0,
        0.0,
        0.0,
        1.0
      ],
      "name": "GLTF_SceneRootNode"
    },
    {
      "children": [
        4,
        5,
        6
      ],
      "matrix": [
        0.033317141234874725,
        0.0,
        0.0,
        0.0,
        0.0,
        0.01820586808025837,
        0.0,
        0.0,
        0.0,
        0.0,
        0.09344804286956787,
        0.0,
        0.0,
        0.0,
        0.0,
        1.0
      ],
      "name": "PORTERIA_0"
    },
    {
      "mesh": 0,
      "name": "Object_4"
    },
    {
      "mesh": 1,
      "name": "Object_5"
    },
    {
      "mesh": 2,
      "name": "Object_6"
    }
  ],
  "scene": 0,
  "scenes": [
    {
      "name": "Sketchfab_Scene",
      "nodes": [
        0
      ]
    }
  ]
}
