{
  "accessors": [
    {
      "bufferView": 2,
      "componentType": 5126,
      "count": 8506,
      "max": [
        409.794921875,
        103.19464874267578,
        564.6524047851563
      ],
      "min": [
        -409.7759094238281,
        -103.49845886230469,
        0.037390999495983124
      ],
      "type": "VEC3"
    },
    {
      "bufferView": 2,
      "byteOffset": 102072,
      "componentType": 5126,
      "count": 8506,
      "max": [
        0.9999772310256958,
        0.9998740553855896,
        0.9996014833450317
      ],
      "min": [
        -0.9995759725570679,
        -0.9999538064002991,
        -0.9998951554298401
      ],
      "type": "VEC3"
    },
    {
      "bufferView": 3,
      "componentType": 5126,
      "count": 8506,
      "max": [
        0.9990637302398682,
        0.9997822642326355,
        0.9897624850273132,
        1.0
      ],
      "min": [
        -0.9998058676719666,
        -0.999991774559021,
        -0.9999904036521912,
        -1.0
      ],
      "type": "VEC4"
    },
    {
      "bufferView": 1,
      "componentType": 5126,
      "count": 8506,
      "max": [
        0.9571030139923096,
        0.9989889860153198
      ],
      "min": [
        0.0010110000148415565,
        0.0010110000148415565
      ],
      "type": "VEC2"
    },
    {
      "bufferView": 0,
      "componentType": 5125,
      "count": 45582,
      "type": "SCALAR"
    }
  ],
  "asset": {
    "extras": {
      "author": "alitural (https://sketchfab.com/alitural)",
      "license": "CC-BY-4.0 (http://creativecommons.org/licenses/by/4.0/)",
      "source": "https://sketchfab.com/3d-models/dog-3-f939db537d5740c2a58c29823566c144",
      "title": "Dog 3"
    },
    "generator": "Sketchfab-15.27.0",
    "version": "2.0"
  },
  "bufferViews": [
    {
      "buffer": 0,
      "byteLength": 182328,
      "name": "floatBufferViews",
      "target": 34963
    },
    {
      "buffer": 0,
      "byteLength": 68048,
      "byteOffset": 182328,
      "byteStride": 8,
      "name": "floatBufferViews",
      "target": 34962
    },
    {
      "buffer": 0,
      "byteLength": 204144,
      "byteOffset": 250376,
      "byteStride": 12,
      "name": "floatBufferViews",
      "target": 34962
    },
    {
      "buffer": 0,
      "byteLength": 136096,
      "byteOffset": 454520,
      "byteStride": 16,
      "name": "floatBufferViews",
      "target": 34962
    }
  ],
  "buffers": [
    {
      "byteLength": 590616,
      "uri": "scene.bin"
    }
  ],
  "images": [
    {
      "uri": "textures/dog1_1_baseColor.png"
    },
    {
      "uri": "textures/dog1_1_normal.png"
    }
  ],
  "materials": [
    {
      "doubleSided": true,
      "name": "dog1_1",
      "normalTexture": {
        "index": 1
      },
      "pbrMetallicRoughness": {
        "baseColorTexture": {
          "index": 0
        },
        "metallicFactor": 0.0
      }
    }
  ],
  "meshes": [
    {
      "name": "Object_0",
      "primitives": [
        {
          "attributes": {
            "NORMAL": 1,
            "POSITION": 0,
            "TANGENT": 2,
            "TEXCOORD_0": 3
          },
          "indices": 4,
          "material": 0,
          "mode": 4
        }
      ]
    }
  ],
  "nodes": [
    {
      "children": [
        1
      ],
      "matrix": [
        1.0,
        0.0,
        0.0,
        0.0,
        0.0,
        2.220446049250313e-16,
        -1.0,
        0.0,
        0.0,
        1.0,
        2.220446049250313e-16,
        0.0,
        0.0,
        0.0,
        0.0,
        1.0
      ],
      "name": "Sketchfab_model"
    },
    {
      "children": [
        2
      ],
      "name": "dog1.obj.cleaner.materialmerger.gles"
    },
    {
      "mesh": 0,
      "name": "Object_2"
    }
  ],
  "samplers": [
    {
      "magFilter": 9729,
      "minFilter": 9987,
      "wrapS": 10497,
      "wrapT": 10497
    }
  ],
  "scene": 0,
  "scenes": [
    {
      "name": "Sketchfab_Scene",
      "nodes": [
        0
      ]
    }
  ],
  "textures": [
    {
      "sampler": 0,
      "source": 0
    },
    {
      "sampler": 0,
      "source": 1
    }
  ]
}
